<mxfile host="app.diagrams.net" agent="Mozilla/5.0 (Windows NT 10.0; Win64; x64) AppleWebKit/537.36 (KHTML, like Gecko) Chrome/139.0.0.0 Safari/537.36 Edg/139.0.0.0" version="27.1.5">
  <diagram name="Page-1" id="OB-Skv7ipIgz0RFftd0Z">
    <mxGraphModel dx="2364" dy="1340" grid="0" gridSize="10" guides="1" tooltips="1" connect="1" arrows="1" fold="1" page="1" pageScale="1" pageWidth="1169" pageHeight="827" background="#FFFFFF" math="0" shadow="0" adaptiveColors="none">
      <root>
        <mxCell id="A9TOfrX54KiNDDk2kyXw-0" />
        <mxCell id="A9TOfrX54KiNDDk2kyXw-1" parent="A9TOfrX54KiNDDk2kyXw-0" />
        <mxCell id="pcRGNQqygn--t2DNfjO_-10" value="" style="swimlane;startSize=0;fontFamily=Verdana;rounded=1;gradientDirection=radial;shadow=0;swimlaneLine=0;glass=1;fillStyle=solid;swimlaneFillColor=none;strokeWidth=1;perimeterSpacing=0;fillColor=#EDEDED;strokeColor=#C7C7C7;" parent="A9TOfrX54KiNDDk2kyXw-1" vertex="1">
          <mxGeometry x="209" y="67" width="679" height="619" as="geometry">
            <mxRectangle x="131" y="20" width="43" height="26" as="alternateBounds" />
          </mxGeometry>
        </mxCell>
        <mxCell id="pcRGNQqygn--t2DNfjO_-3" value="AI Foundry&lt;br&gt;Project(s)" style="image;aspect=fixed;html=1;points=[];align=center;fontSize=12;image=img/lib/azure2/ai_machine_learning/AI_Studio.svg;fontFamily=Verdana;labelPosition=center;verticalLabelPosition=bottom;verticalAlign=top;rounded=0;strokeColor=#C7C7C7;" parent="pcRGNQqygn--t2DNfjO_-10" vertex="1">
          <mxGeometry x="43" y="509" width="64" height="68" as="geometry" />
        </mxCell>
        <mxCell id="pcRGNQqygn--t2DNfjO_-6" value="Log Analytics&lt;br&gt;workspace" style="image;aspect=fixed;html=1;points=[];align=center;fontSize=12;image=img/lib/azure2/analytics/Log_Analytics_Workspaces.svg;fontFamily=Verdana;rounded=0;strokeColor=#C7C7C7;" parent="pcRGNQqygn--t2DNfjO_-10" vertex="1">
          <mxGeometry x="43" y="201.99999999999997" width="64" height="64" as="geometry" />
        </mxCell>
        <mxCell id="pcRGNQqygn--t2DNfjO_-33" value="" style="edgeStyle=orthogonalEdgeStyle;rounded=0;orthogonalLoop=1;jettySize=auto;html=1;fontFamily=Verdana;dashed=1;endArrow=classic;startFill=0;endFill=1;strokeColor=#999999;" parent="pcRGNQqygn--t2DNfjO_-10" source="pcRGNQqygn--t2DNfjO_-5" target="pcRGNQqygn--t2DNfjO_-6" edge="1">
          <mxGeometry relative="1" as="geometry" />
        </mxCell>
        <mxCell id="pcRGNQqygn--t2DNfjO_-5" value="Application&lt;br&gt;Insights" style="image;aspect=fixed;html=1;points=[];align=center;fontSize=12;image=img/lib/azure2/devops/Application_Insights.svg;fontFamily=Verdana;rounded=0;strokeColor=#C7C7C7;labelPosition=center;verticalLabelPosition=top;verticalAlign=bottom;" parent="pcRGNQqygn--t2DNfjO_-10" vertex="1">
          <mxGeometry x="53.35000000000002" y="101" width="43.3" height="62" as="geometry" />
        </mxCell>
        <mxCell id="pcRGNQqygn--t2DNfjO_-11" value="&lt;font style=&quot;font-size: 16px;&quot;&gt;&lt;b style=&quot;&quot;&gt;Azure AI Foundry Jumpstart Solution Accelerator&lt;/b&gt;&lt;/font&gt;&lt;div&gt;&lt;font style=&quot;font-size: 16px;&quot;&gt;architecture without network isolation, with/without Hub&lt;/font&gt;&lt;/div&gt;" style="text;html=1;align=left;verticalAlign=middle;resizable=0;points=[];autosize=1;strokeColor=none;fillColor=none;fontFamily=Verdana;rounded=0;" parent="pcRGNQqygn--t2DNfjO_-10" vertex="1">
          <mxGeometry x="82" y="2" width="474" height="51" as="geometry" />
        </mxCell>
        <mxCell id="pcRGNQqygn--t2DNfjO_-15" value="AI&amp;nbsp;Foundry&lt;br&gt;(aka AI Services)" style="image;aspect=fixed;html=1;points=[];align=center;fontSize=12;image=img/lib/azure2/ai_machine_learning/AI_Studio.svg;fontFamily=Verdana;rounded=0;strokeColor=#C7C7C7;labelPosition=center;verticalLabelPosition=top;verticalAlign=bottom;" parent="pcRGNQqygn--t2DNfjO_-10" vertex="1">
          <mxGeometry x="43" y="345.95" width="64" height="68" as="geometry" />
        </mxCell>
        <mxCell id="pcRGNQqygn--t2DNfjO_-16" value="Azure AI&lt;br&gt;Search (optional)" style="image;aspect=fixed;html=1;points=[];align=center;fontSize=12;image=img/lib/azure2/app_services/Search_Services.svg;fontFamily=Verdana;rounded=0;strokeColor=#C7C7C7;" parent="pcRGNQqygn--t2DNfjO_-10" vertex="1">
          <mxGeometry x="194" y="512" width="68" height="49.120000000000005" as="geometry" />
        </mxCell>
        <mxCell id="pcRGNQqygn--t2DNfjO_-58" value="" style="shape=image;verticalLabelPosition=bottom;labelBackgroundColor=default;verticalAlign=top;aspect=fixed;imageAspect=0;editableCssRules=.*;image=data:image/svg+xml,PHN2ZyB4bWxucz0iaHR0cDovL3d3dy53My5vcmcvMjAwMC9zdmciIHZpZXdCb3g9IjQuMDAzNTE2MTk3MjA0NTkgNi41NDMwMDAyMjEyNTI0NDEgODcuOTkzMjU1NjE1MjM0MzggODIuOTEzMDAyMDE0MTYwMTYiIGhlaWdodD0iMTI5LjU1MTU2NTY0NzEyNTI0IiB3aWR0aD0iMTM3LjQ4OTQ2MTg5ODgwMzciPiYjeGE7ICAgIDxkZWZzPiYjeGE7ICAgICAgICA8bGluZWFyR3JhZGllbnQgZ3JhZGllbnRVbml0cz0idXNlclNwYWNlT25Vc2UiIGdyYWRpZW50VHJhbnNmb3JtPSJtYXRyaXgoMSAwIDAgLTEgMTA3NSAxNTgpIiB5Mj0iNjUuNDI2IiB5MT0iMTQ1LjMxMiIgeDI9Ii0xMDU5LjIxMyIgeDE9Ii0xMDMyLjE3MiIgaWQ9ImUzOTljMTlmLWI2OGYtNDI5ZC1iMTc2LTE4YzIxMTdmZjczYyI+JiN4YTsgICAgICAgICAgICA8c3RvcCBzdG9wLWNvbG9yPSIjMTE0YThiIiBvZmZzZXQ9IjAiLz4mI3hhOyAgICAgICAgICAgIDxzdG9wIHN0b3AtY29sb3I9IiMwNjY5YmMiIG9mZnNldD0iMSIvPiYjeGE7ICAgICAgICA8L2xpbmVhckdyYWRpZW50PiYjeGE7ICAgICAgICA8bGluZWFyR3JhZGllbnQgZ3JhZGllbnRVbml0cz0idXNlclNwYWNlT25Vc2UiIGdyYWRpZW50VHJhbnNmb3JtPSJtYXRyaXgoMSAwIDAgLTEgMTA3NSAxNTgpIiB5Mj0iMTA1Ljk2OCIgeTE9IjEwOC4wODMiIHgyPSItMTAyOS45OCIgeDE9Ii0xMDIzLjcyNSIgaWQ9ImFjMmE2ZmMyLWNhNDgtNDMyNy05YTNjLWQ0ZGNjMzI1NmUxNSI+JiN4YTsgICAgICAgICAgICA8c3RvcCBzdG9wLW9wYWNpdHk9Ii4zIiBvZmZzZXQ9IjAiLz4mI3hhOyAgICAgICAgICAgIDxzdG9wIHN0b3Atb3BhY2l0eT0iLjIiIG9mZnNldD0iLjA3MSIvPiYjeGE7ICAgICAgICAgICAgPHN0b3Agc3RvcC1vcGFjaXR5PSIuMSIgb2Zmc2V0PSIuMzIxIi8+JiN4YTsgICAgICAgICAgICA8c3RvcCBzdG9wLW9wYWNpdHk9Ii4wNSIgb2Zmc2V0PSIuNjIzIi8+JiN4YTsgICAgICAgICAgICA8c3RvcCBzdG9wLW9wYWNpdHk9IjAiIG9mZnNldD0iMSIvPiYjeGE7ICAgICAgICA8L2xpbmVhckdyYWRpZW50PiYjeGE7ICAgICAgICA8bGluZWFyR3JhZGllbnQgZ3JhZGllbnRVbml0cz0idXNlclNwYWNlT25Vc2UiIGdyYWRpZW50VHJhbnNmb3JtPSJtYXRyaXgoMSAwIDAgLTEgMTA3NSAxNTgpIiB5Mj0iNjguNTYxIiB5MT0iMTQ3LjY0MiIgeDI9Ii05OTcuNDgyIiB4MT0iLTEwMjcuMTY1IiBpZD0iYTdmZWU5NzAtYTc4NC00YmIxLWFmOGQtNjNkMThlNWY3ZGI5Ij4mI3hhOyAgICAgICAgICAgIDxzdG9wIHN0b3AtY29sb3I9IiMzY2NiZjQiIG9mZnNldD0iMCIvPiYjeGE7ICAgICAgICAgICAgPHN0b3Agc3RvcC1jb2xvcj0iIzI4OTJkZiIgb2Zmc2V0PSIxIi8+JiN4YTsgICAgICAgIDwvbGluZWFyR3JhZGllbnQ+JiN4YTsgICAgPC9kZWZzPiYjeGE7ICAgIDxwYXRoIGQ9Ik0zMy4zMzggNi41NDRoMjYuMDM4bC0yNy4wMyA4MC4wODdhNC4xNTIgNC4xNTIgMCAwIDEtMy45MzMgMi44MjRIOC4xNDlhNC4xNDUgNC4xNDUgMCAwIDEtMy45MjgtNS40N0wyOS40MDQgOS4zNjhhNC4xNTIgNC4xNTIgMCAwIDEgMy45MzQtMi44MjV6IiBmaWxsPSJ1cmwoI2UzOTljMTlmLWI2OGYtNDI5ZC1iMTc2LTE4YzIxMTdmZjczYykiLz4mI3hhOyAgICA8cGF0aCBkPSJNNzEuMTc1IDYwLjI2MWgtNDEuMjlhMS45MTEgMS45MTEgMCAwIDAtMS4zMDUgMy4zMDlsMjYuNTMyIDI0Ljc2NGE0LjE3MSA0LjE3MSAwIDAgMCAyLjg0NiAxLjEyMWgyMy4zOHoiIGZpbGw9IiMwMDc4ZDQiLz4mI3hhOyAgICA8cGF0aCBkPSJNMzMuMzM4IDYuNTQ0YTQuMTE4IDQuMTE4IDAgMCAwLTMuOTQzIDIuODc5TDQuMjUyIDgzLjkxN2E0LjE0IDQuMTQgMCAwIDAgMy45MDggNS41MzhoMjAuNzg3YTQuNDQzIDQuNDQzIDAgMCAwIDMuNDEtMi45bDUuMDE0LTE0Ljc3NyAxNy45MSAxNi43MDVhNC4yMzcgNC4yMzcgMCAwIDAgMi42NjYuOTcySDgxLjI0TDcxLjAyNCA2MC4yNjFsLTI5Ljc4MS4wMDdMNTkuNDcgNi41NDR6IiBmaWxsPSJ1cmwoI2FjMmE2ZmMyLWNhNDgtNDMyNy05YTNjLWQ0ZGNjMzI1NmUxNSkiLz4mI3hhOyAgICA8cGF0aCBkPSJNNjYuNTk1IDkuMzY0YTQuMTQ1IDQuMTQ1IDAgMCAwLTMuOTI4LTIuODJIMzMuNjQ4YTQuMTQ2IDQuMTQ2IDAgMCAxIDMuOTI4IDIuODJsMjUuMTg0IDc0LjYyYTQuMTQ2IDQuMTQ2IDAgMCAxLTMuOTI4IDUuNDcyaDI5LjAyYTQuMTQ2IDQuMTQ2IDAgMCAwIDMuOTI3LTUuNDcyeiIgZmlsbD0idXJsKCNhN2ZlZTk3MC1hNzg0LTRiYjEtYWY4ZC02M2QxOGU1ZjdkYjkpIi8+JiN4YTs8L3N2Zz4=;rounded=0;strokeColor=#C7C7C7;" parent="pcRGNQqygn--t2DNfjO_-10" vertex="1">
          <mxGeometry x="26.5" y="10" width="42.16" height="40" as="geometry" />
        </mxCell>
        <mxCell id="8p1YxtdY1b3hPkzbEP4v-4" value="Storage Account&lt;br&gt;Samples (optional)" style="image;aspect=fixed;html=1;points=[];align=center;fontSize=12;image=img/lib/azure2/storage/Storage_Accounts.svg;fontFamily=Verdana;rounded=0;strokeColor=#C7C7C7;labelPosition=center;verticalLabelPosition=top;verticalAlign=bottom;" parent="pcRGNQqygn--t2DNfjO_-10" vertex="1">
          <mxGeometry x="198" y="353.95" width="65" height="52" as="geometry" />
        </mxCell>
        <mxCell id="8p1YxtdY1b3hPkzbEP4v-8" value="" style="endArrow=classic;html=1;rounded=0;endFill=1;strokeColor=#777777;dashed=1;labelPosition=center;verticalLabelPosition=bottom;align=center;verticalAlign=top;" parent="pcRGNQqygn--t2DNfjO_-10" source="pcRGNQqygn--t2DNfjO_-3" target="pcRGNQqygn--t2DNfjO_-15" edge="1">
          <mxGeometry width="50" height="50" relative="1" as="geometry">
            <mxPoint x="673" y="724" as="sourcePoint" />
            <mxPoint x="705" y="724" as="targetPoint" />
          </mxGeometry>
        </mxCell>
        <mxCell id="8p1YxtdY1b3hPkzbEP4v-13" value="" style="endArrow=classic;html=1;rounded=0;endFill=1;strokeColor=#FFB366;edgeStyle=orthogonalEdgeStyle;" parent="pcRGNQqygn--t2DNfjO_-10" source="pcRGNQqygn--t2DNfjO_-3" target="pcRGNQqygn--t2DNfjO_-6" edge="1">
          <mxGeometry width="50" height="50" relative="1" as="geometry">
            <mxPoint x="101.99200000000019" y="541.98" as="sourcePoint" />
            <mxPoint x="105" y="241" as="targetPoint" />
            <Array as="points">
              <mxPoint x="147" y="542" />
              <mxPoint x="147" y="241" />
            </Array>
          </mxGeometry>
        </mxCell>
        <mxCell id="8p1YxtdY1b3hPkzbEP4v-14" value="" style="endArrow=classic;html=1;rounded=0;endFill=1;strokeColor=#FFB366;edgeStyle=orthogonalEdgeStyle;" parent="pcRGNQqygn--t2DNfjO_-10" source="pcRGNQqygn--t2DNfjO_-15" target="pcRGNQqygn--t2DNfjO_-6" edge="1">
          <mxGeometry width="50" height="50" relative="1" as="geometry">
            <mxPoint x="98" y="378.99800000000005" as="sourcePoint" />
            <mxPoint x="104.97600000000011" y="231.01600000000008" as="targetPoint" />
            <Array as="points">
              <mxPoint x="138" y="379" />
              <mxPoint x="138" y="231" />
            </Array>
          </mxGeometry>
        </mxCell>
        <mxCell id="8p1YxtdY1b3hPkzbEP4v-15" value="" style="swimlane;startSize=0;fillColor=#6a00ff;fontColor=#ffffff;strokeColor=light-dark(#E4E4E4,#878787);" parent="pcRGNQqygn--t2DNfjO_-10" vertex="1">
          <mxGeometry x="336" y="175" width="324" height="425" as="geometry" />
        </mxCell>
        <mxCell id="pcRGNQqygn--t2DNfjO_-2" value="AI Foundry&lt;br&gt;Hub" style="image;aspect=fixed;html=1;points=[];align=center;fontSize=12;image=img/lib/azure2/ai_machine_learning/AI_Studio.svg;fontFamily=Verdana;rounded=0;strokeColor=#C7C7C7;labelPosition=center;verticalLabelPosition=top;verticalAlign=bottom;" parent="8p1YxtdY1b3hPkzbEP4v-15" vertex="1">
          <mxGeometry x="44" y="173" width="64" height="68" as="geometry" />
        </mxCell>
        <mxCell id="pcRGNQqygn--t2DNfjO_-9" value="Key Vault&lt;br&gt;Hub" style="image;aspect=fixed;html=1;points=[];align=center;fontSize=12;image=img/lib/azure2/security/Key_Vaults.svg;fontFamily=Verdana;rounded=0;strokeColor=#C7C7C7;" parent="8p1YxtdY1b3hPkzbEP4v-15" vertex="1">
          <mxGeometry x="186.5" y="75" width="68" height="68" as="geometry" />
        </mxCell>
        <mxCell id="pcRGNQqygn--t2DNfjO_-7" value="Container Registry&lt;br&gt;Hub&amp;nbsp;&lt;span style=&quot;background-color: light-dark(#ffffff, var(--ge-dark-color, #121212)); color: light-dark(rgb(0, 0, 0), rgb(255, 255, 255));&quot;&gt;(optional)&lt;/span&gt;" style="image;aspect=fixed;html=1;points=[];align=center;fontSize=12;image=img/lib/azure2/containers/Container_Registries.svg;fontFamily=Verdana;rounded=0;strokeColor=#C7C7C7;labelPosition=center;verticalLabelPosition=bottom;verticalAlign=top;" parent="8p1YxtdY1b3hPkzbEP4v-15" vertex="1">
          <mxGeometry x="188" y="275" width="68" height="61" as="geometry" />
        </mxCell>
        <mxCell id="pcRGNQqygn--t2DNfjO_-8" value="Storage Account&lt;br&gt;Hub" style="image;aspect=fixed;html=1;points=[];align=center;fontSize=12;image=img/lib/azure2/storage/Storage_Accounts.svg;fontFamily=Verdana;rounded=0;strokeColor=#C7C7C7;" parent="8p1YxtdY1b3hPkzbEP4v-15" vertex="1">
          <mxGeometry x="188" y="181" width="65" height="52" as="geometry" />
        </mxCell>
        <mxCell id="8p1YxtdY1b3hPkzbEP4v-19" value="Hub-based&lt;br&gt;Project(s)" style="image;aspect=fixed;html=1;points=[];align=center;fontSize=12;image=img/lib/azure2/ai_machine_learning/AI_Studio.svg;fontFamily=Verdana;rounded=0;strokeColor=#C7C7C7;" parent="8p1YxtdY1b3hPkzbEP4v-15" vertex="1">
          <mxGeometry x="44" y="310" width="64" height="68" as="geometry" />
        </mxCell>
        <mxCell id="8p1YxtdY1b3hPkzbEP4v-26" value="&lt;div style=&quot;&quot;&gt;&lt;span style=&quot;background-color: transparent; color: light-dark(rgb(0, 0, 0), rgb(255, 255, 255));&quot;&gt;&lt;b&gt;Hub Deployment&lt;/b&gt;&lt;/span&gt;&lt;/div&gt;to support Hub-based projects&lt;div&gt;(Optional)&lt;/div&gt;" style="text;html=1;align=left;verticalAlign=middle;resizable=0;points=[];autosize=1;strokeColor=none;fillColor=none;" parent="8p1YxtdY1b3hPkzbEP4v-15" vertex="1">
          <mxGeometry x="6" width="179" height="55" as="geometry" />
        </mxCell>
        <mxCell id="8p1YxtdY1b3hPkzbEP4v-64" value="" style="endArrow=classic;html=1;rounded=0;endFill=1;strokeColor=#00CC66;entryX=-0.007;entryY=0.49;entryDx=0;entryDy=0;entryPerimeter=0;edgeStyle=orthogonalEdgeStyle;" parent="8p1YxtdY1b3hPkzbEP4v-15" source="pcRGNQqygn--t2DNfjO_-2" target="pcRGNQqygn--t2DNfjO_-9" edge="1">
          <mxGeometry width="50" height="50" relative="1" as="geometry">
            <mxPoint x="293" y="-46.34000000000003" as="sourcePoint" />
            <mxPoint x="325" y="-46.34000000000003" as="targetPoint" />
          </mxGeometry>
        </mxCell>
        <mxCell id="8p1YxtdY1b3hPkzbEP4v-65" value="" style="endArrow=classic;html=1;rounded=0;endFill=1;strokeColor=#00CC66;edgeStyle=orthogonalEdgeStyle;" parent="8p1YxtdY1b3hPkzbEP4v-15" source="pcRGNQqygn--t2DNfjO_-2" target="pcRGNQqygn--t2DNfjO_-8" edge="1">
          <mxGeometry width="50" height="50" relative="1" as="geometry">
            <mxPoint x="105" y="195" as="sourcePoint" />
            <mxPoint x="189.5" y="195" as="targetPoint" />
          </mxGeometry>
        </mxCell>
        <mxCell id="8p1YxtdY1b3hPkzbEP4v-66" value="" style="endArrow=classic;html=1;rounded=0;endFill=1;strokeColor=#00CC66;edgeStyle=orthogonalEdgeStyle;entryX=-0.005;entryY=0.546;entryDx=0;entryDy=0;entryPerimeter=0;" parent="8p1YxtdY1b3hPkzbEP4v-15" source="pcRGNQqygn--t2DNfjO_-2" target="pcRGNQqygn--t2DNfjO_-7" edge="1">
          <mxGeometry width="50" height="50" relative="1" as="geometry">
            <mxPoint x="115" y="205" as="sourcePoint" />
            <mxPoint x="200" y="205" as="targetPoint" />
            <Array as="points">
              <mxPoint x="147" y="207" />
              <mxPoint x="147" y="308" />
            </Array>
          </mxGeometry>
        </mxCell>
        <mxCell id="8p1YxtdY1b3hPkzbEP4v-68" value="" style="endArrow=none;html=1;rounded=0;endFill=1;strokeColor=#777777;dashed=1;startArrow=classic;startFill=1;" parent="8p1YxtdY1b3hPkzbEP4v-15" source="pcRGNQqygn--t2DNfjO_-2" target="8p1YxtdY1b3hPkzbEP4v-19" edge="1">
          <mxGeometry width="50" height="50" relative="1" as="geometry">
            <mxPoint x="197" y="-88" as="sourcePoint" />
            <mxPoint x="229" y="-88" as="targetPoint" />
          </mxGeometry>
        </mxCell>
        <mxCell id="8p1YxtdY1b3hPkzbEP4v-69" value="" style="endArrow=classic;html=1;rounded=0;endFill=1;strokeColor=#FFB366;edgeStyle=orthogonalEdgeStyle;entryX=1;entryY=0.5;entryDx=0;entryDy=0;" parent="8p1YxtdY1b3hPkzbEP4v-15" source="pcRGNQqygn--t2DNfjO_-9" target="8p1YxtdY1b3hPkzbEP4v-70" edge="1">
          <mxGeometry width="50" height="50" relative="1" as="geometry">
            <mxPoint x="214" y="45" as="sourcePoint" />
            <mxPoint x="10" y="80" as="targetPoint" />
            <Array as="points">
              <mxPoint x="220" y="62" />
              <mxPoint x="5" y="62" />
            </Array>
          </mxGeometry>
        </mxCell>
        <mxCell id="8p1YxtdY1b3hPkzbEP4v-70" value="" style="ellipse;whiteSpace=wrap;html=1;aspect=fixed;fillColor=#FFB366;strokeColor=#FFE6CC;" parent="8p1YxtdY1b3hPkzbEP4v-15" vertex="1">
          <mxGeometry x="-4" y="57" width="9" height="9" as="geometry" />
        </mxCell>
        <mxCell id="8p1YxtdY1b3hPkzbEP4v-76" value="" style="endArrow=classic;html=1;rounded=0;endFill=1;strokeColor=#FFB366;edgeStyle=orthogonalEdgeStyle;exitX=-0.015;exitY=0.265;exitDx=0;exitDy=0;exitPerimeter=0;" parent="8p1YxtdY1b3hPkzbEP4v-15" source="pcRGNQqygn--t2DNfjO_-8" edge="1">
          <mxGeometry width="50" height="50" relative="1" as="geometry">
            <mxPoint x="231" y="85" as="sourcePoint" />
            <mxPoint x="5" y="62" as="targetPoint" />
            <Array as="points">
              <mxPoint x="169" y="195" />
              <mxPoint x="169" y="62" />
            </Array>
          </mxGeometry>
        </mxCell>
        <mxCell id="8p1YxtdY1b3hPkzbEP4v-77" value="" style="endArrow=classic;html=1;rounded=0;endFill=1;strokeColor=#FFB366;edgeStyle=orthogonalEdgeStyle;exitX=-0.015;exitY=0.265;exitDx=0;exitDy=0;exitPerimeter=0;targetPerimeterSpacing=0;jumpSize=12;" parent="8p1YxtdY1b3hPkzbEP4v-15" edge="1">
          <mxGeometry width="50" height="50" relative="1" as="geometry">
            <mxPoint x="187" y="300" as="sourcePoint" />
            <mxPoint x="5" y="62" as="targetPoint" />
            <Array as="points">
              <mxPoint x="169" y="300" />
              <mxPoint x="169" y="62" />
              <mxPoint x="5" y="62" />
            </Array>
          </mxGeometry>
        </mxCell>
        <mxCell id="8p1YxtdY1b3hPkzbEP4v-79" value="" style="endArrow=classic;html=1;rounded=0;endFill=1;strokeColor=#FFB366;edgeStyle=orthogonalEdgeStyle;exitX=-0.001;exitY=0.469;exitDx=0;exitDy=0;exitPerimeter=0;entryX=1;entryY=0.556;entryDx=0;entryDy=0;entryPerimeter=0;" parent="8p1YxtdY1b3hPkzbEP4v-15" source="pcRGNQqygn--t2DNfjO_-2" target="8p1YxtdY1b3hPkzbEP4v-70" edge="1">
          <mxGeometry width="50" height="50" relative="1" as="geometry">
            <mxPoint x="197" y="205" as="sourcePoint" />
            <mxPoint x="15" y="72" as="targetPoint" />
            <Array as="points">
              <mxPoint x="37" y="205" />
              <mxPoint x="37" y="62" />
            </Array>
          </mxGeometry>
        </mxCell>
        <mxCell id="8p1YxtdY1b3hPkzbEP4v-80" value="" style="endArrow=classic;html=1;rounded=0;endFill=1;strokeColor=#FFB366;edgeStyle=orthogonalEdgeStyle;" parent="8p1YxtdY1b3hPkzbEP4v-15" source="8p1YxtdY1b3hPkzbEP4v-19" edge="1">
          <mxGeometry width="50" height="50" relative="1" as="geometry">
            <mxPoint x="51" y="339" as="sourcePoint" />
            <mxPoint x="5" y="62" as="targetPoint" />
            <Array as="points">
              <mxPoint x="37" y="339" />
              <mxPoint x="37" y="62" />
            </Array>
          </mxGeometry>
        </mxCell>
        <mxCell id="8p1YxtdY1b3hPkzbEP4v-81" value="Managed&#xa;Identity" style="image;aspect=fixed;html=1;points=[];align=right;image=img/lib/azure2/identity/Entra_Managed_Identities.svg;labelPosition=left;verticalLabelPosition=middle;verticalAlign=middle;spacing=2;fontSize=7;" parent="8p1YxtdY1b3hPkzbEP4v-15" vertex="1">
          <mxGeometry x="145" y="86" width="20" height="17.78" as="geometry" />
        </mxCell>
        <mxCell id="8p1YxtdY1b3hPkzbEP4v-82" value="Managed&#xa;Identity" style="image;aspect=fixed;html=1;points=[];align=right;image=img/lib/azure2/identity/Entra_Managed_Identities.svg;labelPosition=left;verticalLabelPosition=middle;verticalAlign=middle;spacing=2;fontSize=7;" parent="8p1YxtdY1b3hPkzbEP4v-15" vertex="1">
          <mxGeometry x="145" y="313" width="20" height="17.78" as="geometry" />
        </mxCell>
        <mxCell id="8p1YxtdY1b3hPkzbEP4v-83" value="Managed&#xa;Identity" style="image;aspect=fixed;html=1;points=[];align=right;image=img/lib/azure2/identity/Entra_Managed_Identities.svg;labelPosition=left;verticalLabelPosition=middle;verticalAlign=middle;spacing=2;fontSize=7;" parent="8p1YxtdY1b3hPkzbEP4v-15" vertex="1">
          <mxGeometry x="125" y="223.22000000000003" width="20" height="17.78" as="geometry" />
        </mxCell>
        <mxCell id="8p1YxtdY1b3hPkzbEP4v-89" value="" style="endArrow=classic;html=1;rounded=0;endFill=1;strokeColor=#CC99FF;entryX=0.997;entryY=0.728;entryDx=0;entryDy=0;entryPerimeter=0;edgeStyle=orthogonalEdgeStyle;" parent="8p1YxtdY1b3hPkzbEP4v-15" target="8p1YxtdY1b3hPkzbEP4v-4" edge="1">
          <mxGeometry width="50" height="50" relative="1" as="geometry">
            <mxPoint x="44" y="352.00068965517255" as="sourcePoint" />
            <mxPoint x="-75.8599999999999" y="351.99800000000016" as="targetPoint" />
            <Array as="points">
              <mxPoint x="-18" y="352" />
              <mxPoint x="-18" y="217" />
            </Array>
          </mxGeometry>
        </mxCell>
        <mxCell id="8p1YxtdY1b3hPkzbEP4v-93" value="Managed&#xa;Identity" style="image;aspect=fixed;html=1;points=[];align=right;image=img/lib/azure2/identity/Entra_Managed_Identities.svg;labelPosition=left;verticalLabelPosition=middle;verticalAlign=middle;spacing=2;fontSize=7;" parent="8p1YxtdY1b3hPkzbEP4v-15" vertex="1">
          <mxGeometry x="15" y="173" width="20" height="17.78" as="geometry" />
        </mxCell>
        <mxCell id="8p1YxtdY1b3hPkzbEP4v-95" value="Managed&#xa;Identity" style="image;aspect=fixed;html=1;points=[];align=right;image=img/lib/azure2/identity/Entra_Managed_Identities.svg;labelPosition=left;verticalLabelPosition=middle;verticalAlign=middle;spacing=2;fontSize=7;" parent="8p1YxtdY1b3hPkzbEP4v-15" vertex="1">
          <mxGeometry x="15" y="233" width="20" height="17.78" as="geometry" />
        </mxCell>
        <mxCell id="8p1YxtdY1b3hPkzbEP4v-27" value="" style="endArrow=classic;html=1;rounded=0;endFill=1;strokeColor=#FFB366;edgeStyle=orthogonalEdgeStyle;" parent="pcRGNQqygn--t2DNfjO_-10" source="pcRGNQqygn--t2DNfjO_-16" target="pcRGNQqygn--t2DNfjO_-6" edge="1">
          <mxGeometry width="50" height="50" relative="1" as="geometry">
            <mxPoint x="194.01999999999998" y="542.01232" as="sourcePoint" />
            <mxPoint x="105" y="250" as="targetPoint" />
            <Array as="points">
              <mxPoint x="156" y="542" />
              <mxPoint x="156" y="250" />
            </Array>
          </mxGeometry>
        </mxCell>
        <mxCell id="8p1YxtdY1b3hPkzbEP4v-28" value="" style="endArrow=classic;html=1;rounded=0;endFill=1;strokeColor=#FFB366;edgeStyle=orthogonalEdgeStyle;" parent="pcRGNQqygn--t2DNfjO_-10" source="8p1YxtdY1b3hPkzbEP4v-4" target="pcRGNQqygn--t2DNfjO_-6" edge="1">
          <mxGeometry width="50" height="50" relative="1" as="geometry">
            <mxPoint x="196.9749999999999" y="379.00199999999995" as="sourcePoint" />
            <mxPoint x="109" y="222" as="targetPoint" />
            <Array as="points">
              <mxPoint x="165" y="379" />
              <mxPoint x="165" y="222" />
            </Array>
          </mxGeometry>
        </mxCell>
        <mxCell id="8p1YxtdY1b3hPkzbEP4v-34" value="" style="endArrow=classic;html=1;rounded=0;endFill=1;strokeColor=#00CC66;edgeStyle=orthogonalEdgeStyle;exitX=0.969;exitY=0.648;exitDx=0;exitDy=0;exitPerimeter=0;" parent="pcRGNQqygn--t2DNfjO_-10" source="pcRGNQqygn--t2DNfjO_-15" target="8p1YxtdY1b3hPkzbEP4v-4" edge="1">
          <mxGeometry width="50" height="50" relative="1" as="geometry">
            <mxPoint x="416" y="705" as="sourcePoint" />
            <mxPoint x="204" y="390" as="targetPoint" />
            <Array as="points">
              <mxPoint x="177" y="390" />
              <mxPoint x="177" y="390" />
            </Array>
          </mxGeometry>
        </mxCell>
        <mxCell id="8p1YxtdY1b3hPkzbEP4v-35" value="" style="endArrow=classic;html=1;rounded=0;endFill=1;strokeColor=#00CC66;edgeStyle=orthogonalEdgeStyle;exitX=0.703;exitY=0;exitDx=0;exitDy=0;exitPerimeter=0;" parent="pcRGNQqygn--t2DNfjO_-10" source="pcRGNQqygn--t2DNfjO_-3" target="8p1YxtdY1b3hPkzbEP4v-4" edge="1">
          <mxGeometry width="50" height="50" relative="1" as="geometry">
            <mxPoint x="115" y="400" as="sourcePoint" />
            <mxPoint x="208" y="400" as="targetPoint" />
            <Array as="points">
              <mxPoint x="88" y="400" />
            </Array>
          </mxGeometry>
        </mxCell>
        <mxCell id="8p1YxtdY1b3hPkzbEP4v-37" value="" style="endArrow=classic;html=1;rounded=0;endFill=1;strokeColor=#00CC66;edgeStyle=orthogonalEdgeStyle;exitX=0.462;exitY=1.001;exitDx=0;exitDy=0;exitPerimeter=0;entryX=0.5;entryY=-0.041;entryDx=0;entryDy=0;entryPerimeter=0;startArrow=classic;startFill=1;" parent="pcRGNQqygn--t2DNfjO_-10" source="8p1YxtdY1b3hPkzbEP4v-4" target="pcRGNQqygn--t2DNfjO_-16" edge="1">
          <mxGeometry width="50" height="50" relative="1" as="geometry">
            <mxPoint x="884" y="635.66" as="sourcePoint" />
            <mxPoint x="916" y="635.66" as="targetPoint" />
          </mxGeometry>
        </mxCell>
        <mxCell id="8p1YxtdY1b3hPkzbEP4v-38" value="" style="endArrow=classic;html=1;rounded=0;endFill=1;strokeColor=#00CC66;edgeStyle=orthogonalEdgeStyle;" parent="pcRGNQqygn--t2DNfjO_-10" edge="1">
          <mxGeometry width="50" height="50" relative="1" as="geometry">
            <mxPoint x="107" y="530" as="sourcePoint" />
            <mxPoint x="194" y="530" as="targetPoint" />
            <Array as="points">
              <mxPoint x="169" y="530" />
              <mxPoint x="169" y="530" />
            </Array>
          </mxGeometry>
        </mxCell>
        <mxCell id="8p1YxtdY1b3hPkzbEP4v-39" value="" style="endArrow=classic;html=1;rounded=0;endFill=1;strokeColor=#00CC66;edgeStyle=orthogonalEdgeStyle;exitX=0.906;exitY=0.618;exitDx=0;exitDy=0;exitPerimeter=0;" parent="pcRGNQqygn--t2DNfjO_-10" edge="1">
          <mxGeometry width="50" height="50" relative="1" as="geometry">
            <mxPoint x="100.98399999999992" y="390.97400000000016" as="sourcePoint" />
            <mxPoint x="211" y="521" as="targetPoint" />
            <Array as="points">
              <mxPoint x="101" y="521" />
            </Array>
          </mxGeometry>
        </mxCell>
        <mxCell id="8p1YxtdY1b3hPkzbEP4v-51" value="Managed&#xa;Identity" style="image;aspect=fixed;html=1;points=[];align=right;image=img/lib/azure2/identity/Entra_Managed_Identities.svg;labelPosition=left;verticalLabelPosition=middle;verticalAlign=middle;spacing=2;fontSize=7;" parent="pcRGNQqygn--t2DNfjO_-10" vertex="1">
          <mxGeometry x="194" y="412" width="20" height="17.78" as="geometry" />
        </mxCell>
        <mxCell id="8p1YxtdY1b3hPkzbEP4v-52" value="Managed&#xa;Identity" style="image;aspect=fixed;html=1;points=[];align=right;image=img/lib/azure2/identity/Entra_Managed_Identities.svg;labelPosition=left;verticalLabelPosition=middle;verticalAlign=middle;spacing=2;fontSize=7;" parent="pcRGNQqygn--t2DNfjO_-10" vertex="1">
          <mxGeometry x="194" y="496" width="20" height="17.78" as="geometry" />
        </mxCell>
        <mxCell id="u4DoTKgGISbFUe5KPl5W-6" value="" style="swimlane;startSize=0;strokeColor=#E8E8E8;" parent="pcRGNQqygn--t2DNfjO_-10" vertex="1">
          <mxGeometry x="336" y="51" width="325" height="98" as="geometry" />
        </mxCell>
        <mxCell id="u4DoTKgGISbFUe5KPl5W-7" value="Key" style="text;html=1;align=center;verticalAlign=middle;resizable=0;points=[];autosize=1;strokeColor=none;fillColor=none;fontSize=9;fontFamily=Verdana;rounded=0;spacing=0;" parent="u4DoTKgGISbFUe5KPl5W-6" vertex="1">
          <mxGeometry x="8" width="31" height="19" as="geometry" />
        </mxCell>
        <mxCell id="u4DoTKgGISbFUe5KPl5W-9" value="Logical connection/relationships between services" style="text;html=1;align=left;verticalAlign=middle;resizable=0;points=[];autosize=1;strokeColor=none;fillColor=none;fontSize=9;fontFamily=Verdana;rounded=0;spacing=0;" parent="u4DoTKgGISbFUe5KPl5W-6" vertex="1">
          <mxGeometry x="5" y="17" width="240" height="19" as="geometry" />
        </mxCell>
        <mxCell id="u4DoTKgGISbFUe5KPl5W-11" value="Logs &amp;amp; metrics sent from resources" style="text;html=1;align=left;verticalAlign=middle;resizable=0;points=[];autosize=1;strokeColor=none;fillColor=none;fontSize=9;fontFamily=Verdana;rounded=0;spacing=0;" parent="u4DoTKgGISbFUe5KPl5W-6" vertex="1">
          <mxGeometry x="5" y="36" width="175" height="19" as="geometry" />
        </mxCell>
        <mxCell id="u4DoTKgGISbFUe5KPl5W-12" value="HTTPS traffic between user, apps &amp;amp; services" style="text;html=1;align=left;verticalAlign=middle;resizable=0;points=[];autosize=1;strokeColor=none;fillColor=none;fontSize=9;fontFamily=Verdana;rounded=0;spacing=0;" parent="u4DoTKgGISbFUe5KPl5W-6" vertex="1">
          <mxGeometry x="5" y="54" width="212" height="19" as="geometry" />
        </mxCell>
        <mxCell id="8p1YxtdY1b3hPkzbEP4v-90" value="HTTPS traffic only when Hub is deployed" style="text;html=1;align=left;verticalAlign=middle;resizable=0;points=[];autosize=1;strokeColor=none;fillColor=none;fontSize=9;fontFamily=Verdana;rounded=0;spacing=0;" parent="u4DoTKgGISbFUe5KPl5W-6" vertex="1">
          <mxGeometry x="5" y="73" width="197" height="19" as="geometry" />
        </mxCell>
        <mxCell id="u4DoTKgGISbFUe5KPl5W-8" value="" style="endArrow=classic;html=1;rounded=0;endFill=1;strokeColor=#777777;dashed=1;" parent="u4DoTKgGISbFUe5KPl5W-6" edge="1">
          <mxGeometry width="50" height="50" relative="1" as="geometry">
            <mxPoint x="261" y="26" as="sourcePoint" />
            <mxPoint x="316" y="26" as="targetPoint" />
          </mxGeometry>
        </mxCell>
        <mxCell id="u4DoTKgGISbFUe5KPl5W-10" value="" style="endArrow=classic;html=1;rounded=0;endFill=1;strokeColor=#FFB366;" parent="u4DoTKgGISbFUe5KPl5W-6" edge="1">
          <mxGeometry width="50" height="50" relative="1" as="geometry">
            <mxPoint x="261" y="45" as="sourcePoint" />
            <mxPoint x="316" y="45" as="targetPoint" />
          </mxGeometry>
        </mxCell>
        <mxCell id="u4DoTKgGISbFUe5KPl5W-13" value="" style="endArrow=classic;html=1;rounded=0;endFill=1;strokeColor=#00CC66;" parent="u4DoTKgGISbFUe5KPl5W-6" edge="1">
          <mxGeometry width="50" height="50" relative="1" as="geometry">
            <mxPoint x="261" y="64.65999999999997" as="sourcePoint" />
            <mxPoint x="316" y="65" as="targetPoint" />
          </mxGeometry>
        </mxCell>
        <mxCell id="8p1YxtdY1b3hPkzbEP4v-91" value="" style="endArrow=classic;html=1;rounded=0;endFill=1;strokeColor=#CC99FF;" parent="u4DoTKgGISbFUe5KPl5W-6" edge="1">
          <mxGeometry width="50" height="50" relative="1" as="geometry">
            <mxPoint x="261" y="83.65999999999997" as="sourcePoint" />
            <mxPoint x="316" y="84" as="targetPoint" />
          </mxGeometry>
        </mxCell>
        <mxCell id="8p1YxtdY1b3hPkzbEP4v-57" value="&lt;font style=&quot;font-size: 7px;&quot;&gt;Logs &amp;amp;&lt;br&gt;Metrics&lt;/font&gt;" style="image;sketch=0;aspect=fixed;html=1;points=[];align=right;fontSize=6;image=img/lib/mscae/LogDiagnostics.svg;fontFamily=Verdana;labelPosition=left;verticalLabelPosition=middle;verticalAlign=middle;" parent="pcRGNQqygn--t2DNfjO_-10" vertex="1">
          <mxGeometry x="198" y="217" width="14.4" height="16" as="geometry" />
        </mxCell>
        <mxCell id="8p1YxtdY1b3hPkzbEP4v-63" value="" style="endArrow=classic;html=1;rounded=0;endFill=1;strokeColor=#FFB366;edgeStyle=orthogonalEdgeStyle;" parent="pcRGNQqygn--t2DNfjO_-10" target="pcRGNQqygn--t2DNfjO_-6" edge="1">
          <mxGeometry width="50" height="50" relative="1" as="geometry">
            <mxPoint x="336" y="237" as="sourcePoint" />
            <mxPoint x="107" y="234.00800000000004" as="targetPoint" />
            <Array as="points">
              <mxPoint x="222" y="236" />
              <mxPoint x="222" y="212" />
            </Array>
          </mxGeometry>
        </mxCell>
        <mxCell id="8p1YxtdY1b3hPkzbEP4v-84" value="" style="endArrow=classic;html=1;rounded=0;endFill=1;strokeColor=#CC99FF;edgeStyle=orthogonalEdgeStyle;entryX=0.998;entryY=0.728;entryDx=0;entryDy=0;entryPerimeter=0;" parent="pcRGNQqygn--t2DNfjO_-10" target="8p1YxtdY1b3hPkzbEP4v-4" edge="1">
          <mxGeometry width="50" height="50" relative="1" as="geometry">
            <mxPoint x="380" y="391.62068965517255" as="sourcePoint" />
            <mxPoint x="264" y="392" as="targetPoint" />
            <Array as="points">
              <mxPoint x="321" y="392" />
            </Array>
          </mxGeometry>
        </mxCell>
        <mxCell id="8p1YxtdY1b3hPkzbEP4v-92" value="" style="endArrow=classic;html=1;rounded=0;endFill=1;strokeColor=#CC99FF;edgeStyle=orthogonalEdgeStyle;entryX=0.929;entryY=0.337;entryDx=0;entryDy=0;entryPerimeter=0;exitX=-0.002;exitY=0.306;exitDx=0;exitDy=0;exitPerimeter=0;" parent="pcRGNQqygn--t2DNfjO_-10" source="pcRGNQqygn--t2DNfjO_-2" target="pcRGNQqygn--t2DNfjO_-15" edge="1">
          <mxGeometry width="50" height="50" relative="1" as="geometry">
            <mxPoint x="390" y="401.62068965517255" as="sourcePoint" />
            <mxPoint x="273" y="402" as="targetPoint" />
            <Array as="points">
              <mxPoint x="318" y="369" />
              <mxPoint x="318" y="303" />
              <mxPoint x="129" y="303" />
              <mxPoint x="129" y="369" />
            </Array>
          </mxGeometry>
        </mxCell>
        <mxCell id="8p1YxtdY1b3hPkzbEP4v-94" value="" style="endArrow=classic;html=1;rounded=0;endFill=1;strokeColor=#CC99FF;edgeStyle=orthogonalEdgeStyle;entryX=0.674;entryY=-0.042;entryDx=0;entryDy=0;entryPerimeter=0;exitX=0.003;exitY=0.809;exitDx=0;exitDy=0;exitPerimeter=0;" parent="pcRGNQqygn--t2DNfjO_-10" source="pcRGNQqygn--t2DNfjO_-2" target="pcRGNQqygn--t2DNfjO_-16" edge="1">
          <mxGeometry width="50" height="50" relative="1" as="geometry">
            <mxPoint x="390" y="401.62068965517255" as="sourcePoint" />
            <mxPoint x="273" y="402" as="targetPoint" />
            <Array as="points">
              <mxPoint x="305" y="403" />
              <mxPoint x="305" y="454" />
              <mxPoint x="240" y="454" />
            </Array>
          </mxGeometry>
        </mxCell>
        <mxCell id="pcRGNQqygn--t2DNfjO_-12" value="AI Developers" style="image;aspect=fixed;html=1;points=[];align=center;fontSize=12;image=img/lib/azure2/identity/Users.svg;fontFamily=Verdana;rounded=0;strokeColor=#C7C7C7;" parent="A9TOfrX54KiNDDk2kyXw-1" vertex="1">
          <mxGeometry x="80" y="574" width="64" height="70" as="geometry" />
        </mxCell>
        <mxCell id="8p1YxtdY1b3hPkzbEP4v-2" value="AI&amp;nbsp;&lt;span style=&quot;background-color: light-dark(#ffffff, var(--ge-dark-color, #121212)); color: light-dark(rgb(0, 0, 0), rgb(255, 255, 255));&quot;&gt;Applications&lt;/span&gt;" style="image;aspect=fixed;html=1;points=[];align=center;fontSize=12;image=img/lib/azure2/app_services/App_Services.svg;fontFamily=Verdana;" parent="A9TOfrX54KiNDDk2kyXw-1" vertex="1">
          <mxGeometry x="78" y="328" width="68" height="68" as="geometry" />
        </mxCell>
        <mxCell id="8p1YxtdY1b3hPkzbEP4v-9" value="" style="endArrow=classic;html=1;rounded=0;endFill=1;strokeColor=#00CC66;edgeStyle=orthogonalEdgeStyle;" parent="A9TOfrX54KiNDDk2kyXw-1" source="8p1YxtdY1b3hPkzbEP4v-2" target="pcRGNQqygn--t2DNfjO_-3" edge="1">
          <mxGeometry width="50" height="50" relative="1" as="geometry">
            <mxPoint x="881" y="832.66" as="sourcePoint" />
            <mxPoint x="913" y="832.66" as="targetPoint" />
            <Array as="points">
              <mxPoint x="186" y="374" />
              <mxPoint x="186" y="594" />
            </Array>
          </mxGeometry>
        </mxCell>
        <mxCell id="8p1YxtdY1b3hPkzbEP4v-10" value="" style="endArrow=classic;html=1;rounded=0;endFill=1;strokeColor=#00CC66;edgeStyle=orthogonalEdgeStyle;entryX=0.009;entryY=0.396;entryDx=0;entryDy=0;entryPerimeter=0;" parent="A9TOfrX54KiNDDk2kyXw-1" source="8p1YxtdY1b3hPkzbEP4v-2" target="pcRGNQqygn--t2DNfjO_-15" edge="1">
          <mxGeometry width="50" height="50" relative="1" as="geometry">
            <mxPoint x="881" y="832.66" as="sourcePoint" />
            <mxPoint x="913" y="832.66" as="targetPoint" />
          </mxGeometry>
        </mxCell>
        <mxCell id="8p1YxtdY1b3hPkzbEP4v-11" value="" style="endArrow=classic;html=1;rounded=0;endFill=1;strokeColor=#00CC66;edgeStyle=orthogonalEdgeStyle;entryX=0;entryY=0.599;entryDx=0;entryDy=0;entryPerimeter=0;exitX=0.938;exitY=0.451;exitDx=0;exitDy=0;exitPerimeter=0;" parent="A9TOfrX54KiNDDk2kyXw-1" source="pcRGNQqygn--t2DNfjO_-12" target="pcRGNQqygn--t2DNfjO_-15" edge="1">
          <mxGeometry width="50" height="50" relative="1" as="geometry">
            <mxPoint x="152" y="538" as="sourcePoint" />
            <mxPoint x="163" y="440" as="targetPoint" />
          </mxGeometry>
        </mxCell>
        <mxCell id="8p1YxtdY1b3hPkzbEP4v-12" value="" style="endArrow=classic;html=1;rounded=0;endFill=1;strokeColor=#00CC66;edgeStyle=orthogonalEdgeStyle;" parent="A9TOfrX54KiNDDk2kyXw-1" source="pcRGNQqygn--t2DNfjO_-12" target="pcRGNQqygn--t2DNfjO_-3" edge="1">
          <mxGeometry width="50" height="50" relative="1" as="geometry">
            <mxPoint x="881" y="832.66" as="sourcePoint" />
            <mxPoint x="913" y="832.66" as="targetPoint" />
            <Array as="points">
              <mxPoint x="172" y="618" />
              <mxPoint x="172" y="618" />
            </Array>
          </mxGeometry>
        </mxCell>
        <mxCell id="8p1YxtdY1b3hPkzbEP4v-41" value="" style="endArrow=classic;html=1;rounded=0;endFill=1;strokeColor=#00CC66;edgeStyle=orthogonalEdgeStyle;" parent="A9TOfrX54KiNDDk2kyXw-1" source="8p1YxtdY1b3hPkzbEP4v-55" target="8p1YxtdY1b3hPkzbEP4v-2" edge="1">
          <mxGeometry width="50" height="50" relative="1" as="geometry">
            <mxPoint x="111" y="158" as="sourcePoint" />
            <mxPoint x="262" y="445" as="targetPoint" />
          </mxGeometry>
        </mxCell>
        <mxCell id="8p1YxtdY1b3hPkzbEP4v-48" value="Managed&#xa;Identity" style="image;aspect=fixed;html=1;points=[];align=right;image=img/lib/azure2/identity/Entra_Managed_Identities.svg;labelPosition=left;verticalLabelPosition=middle;verticalAlign=middle;spacing=2;fontSize=7;" parent="A9TOfrX54KiNDDk2kyXw-1" vertex="1">
          <mxGeometry x="173" y="333" width="20" height="17.78" as="geometry" />
        </mxCell>
        <mxCell id="8p1YxtdY1b3hPkzbEP4v-55" value="Application Users" style="image;aspect=fixed;html=1;points=[];align=center;fontSize=12;image=img/lib/azure2/identity/Groups.svg;labelPosition=center;verticalLabelPosition=top;verticalAlign=bottom;" parent="A9TOfrX54KiNDDk2kyXw-1" vertex="1">
          <mxGeometry x="78" y="106" width="68" height="56.00000000000001" as="geometry" />
        </mxCell>
      </root>
    </mxGraphModel>
  </diagram>
</mxfile>
